<?xml version="1.0" standalone="no"?>
<!DOCTYPE svg PUBLIC "-//W3C//DTD SVG 20010904//EN"
 "http://www.w3.org/TR/2001/REC-SVG-20010904/DTD/svg10.dtd">
<svg version="1.0" xmlns="http://www.w3.org/2000/svg"
 width="180.000000pt" height="92.000000pt" viewBox="0 0 180.000000 92.000000"
 preserveAspectRatio="xMidYMid meet">

<g transform="translate(0.000000,92.000000) scale(0.100000,-0.100000)"
fill="#000000" stroke="none">
<path d="M904 869 c-26 -22 -58 -57 -71 -77 -14 -20 -32 -42 -40 -49 -14 -11
-14 -15 1 -38 20 -31 26 -31 62 -3 28 23 144 43 144 25 0 -14 -21 -49 -53 -89
-36 -45 -47 -115 -24 -149 9 -12 29 -30 44 -40 30 -20 24 -26 -9 -8 -16 9 -24
7 -37 -6 -12 -13 -13 -19 -3 -22 6 -3 10 -9 7 -14 -4 -5 1 -6 10 -3 8 4 21 2
28 -3 20 -16 101 -14 142 3 21 8 48 13 61 10 17 -5 24 -2 24 8 0 7 12 17 26
20 15 4 41 18 59 32 31 24 62 33 51 15 -10 -16 5 -41 33 -56 l26 -14 -42 -1
c-23 0 -45 5 -48 10 -9 15 -41 12 -55 -5 -10 -12 -10 -15 0 -15 9 0 9 -4 -1
-16 -12 -15 -11 -16 8 -10 12 4 40 2 62 -5 32 -9 50 -9 88 2 26 7 59 12 74 11
20 -2 25 2 25 19 -2 58 85 41 169 -33 71 -63 105 -143 85 -204 -35 -105 -194
-97 -225 11 l-11 40 -8 -29 c-6 -25 -2 -33 27 -61 119 -112 280 -35 263 126
-12 115 -84 256 -189 366 -111 118 -180 133 -316 69 -73 -34 -88 -38 -119 -30
-43 11 -65 52 -45 84 10 15 8 21 -12 34 -14 9 -25 25 -25 36 0 15 -7 20 -26
20 -17 0 -28 6 -31 19 -3 14 -13 18 -41 17 -33 -1 -37 2 -35 22 2 12 1 22 -2
22 -2 0 -25 -18 -51 -41z m-17 -55 c-3 -3 -12 -4 -19 -1 -8 3 -5 6 6 6 11 1
17 -2 13 -5z"/>
<path d="M625 730 c-26 -10 -40 -27 -52 -65 -7 -21 -15 -29 -28 -27 -17 3 -17
2 -2 -22 32 -48 14 -141 -28 -152 -13 -3 -29 -3 -34 1 -6 3 -11 1 -11 -4 0 -6
18 -11 39 -11 50 0 71 27 71 87 0 41 1 43 30 43 17 0 30 5 30 10 0 6 -13 10
-29 10 l-30 0 12 43 c10 35 20 45 55 63 56 26 35 48 -23 24z"/>
<path d="M273 699 c-41 -26 -93 -104 -93 -140 0 -28 58 -89 105 -111 27 -12
55 2 55 28 0 16 -12 18 -26 4 -13 -13 -100 41 -109 69 -8 25 6 50 52 102 34
37 63 51 63 28 0 -5 5 -7 10 -4 6 3 10 15 10 26 0 25 -26 24 -67 -2z"/>
<path d="M733 683 c-15 -5 -17 -39 -4 -47 15 -9 45 20 38 38 -7 16 -13 18 -34
9z"/>
<path d="M384 593 c-43 -47 -53 -79 -30 -101 16 -16 20 -15 51 21 l33 38 7
-31 c8 -38 33 -50 51 -25 8 10 11 21 8 24 -3 3 -9 -1 -13 -8 -12 -19 -22 1
-30 62 -8 67 -29 73 -77 20z m46 2 c0 -13 -30 -62 -45 -75 -35 -29 -25 19 13
63 15 16 32 23 32 12z"/>
<path d="M685 585 c-14 -13 -25 -35 -25 -49 0 -26 23 -56 43 -56 23 0 77 40
77 56 0 15 -2 15 -22 0 -43 -30 -54 -35 -67 -26 -24 14 -4 38 41 51 54 15 68
27 48 39 -27 17 -70 11 -95 -15z m50 -5 c-28 -12 -37 -12 -30 0 3 6 16 10 28
9 21 0 21 -1 2 -9z"/>
<path d="M123 407 c23 -19 23 -21 -20 -164 -33 -114 -39 -127 -72 -150 -42
-29 -39 -29 98 6 186 49 203 74 88 133 l-41 20 35 19 c58 29 66 45 38 75 -25
27 -77 57 -119 68 -23 6 -23 6 -7 -7z m95 -79 c1 -8 -13 -21 -33 -31 -46 -22
-46 -22 -34 16 6 17 13 38 15 46 4 11 8 11 27 -2 12 -8 23 -21 25 -29z m-14
-121 c16 -13 26 -29 22 -35 -7 -12 -113 -38 -122 -30 -3 4 4 24 16 47 24 47
42 51 84 18z"/>
<path d="M707 395 c-15 -22 -16 -24 -1 -18 9 3 20 0 25 -8 12 -20 11 -89 -1
-89 -23 0 -60 -50 -60 -79 0 -62 33 -83 62 -39 15 22 15 21 22 -17 9 -44 22
-65 41 -65 11 0 11 5 0 28 -8 15 -19 81 -26 147 -17 167 -26 189 -62 140z m18
-194 c-20 -39 -35 -40 -35 -2 0 34 42 75 48 47 2 -8 -4 -28 -13 -45z"/>
<path d="M668 316 c-16 -8 -28 -11 -28 -5 0 15 -16 10 -41 -12 -23 -19 -23
-20 -3 -14 17 4 23 0 28 -19 6 -23 -4 -94 -18 -127 -6 -13 -2 -16 18 -12 22 4
24 9 19 34 -7 37 4 112 21 135 12 16 18 16 40 6 21 -9 26 -9 26 2 0 8 -7 17
-16 20 -19 7 -14 8 -46 -8z"/>
<path d="M1111 283 c-20 -27 -20 -27 -21 -5 0 23 -7 27 -28 13 -11 -6 -10 -10
3 -15 14 -5 17 -15 12 -49 -2 -23 -8 -50 -12 -59 -5 -12 -3 -18 7 -18 8 0 15
12 16 31 1 17 7 41 14 52 10 19 11 20 24 3 12 -17 13 -17 23 3 7 13 8 28 1 45
-12 32 -14 32 -39 -1z"/>
<path d="M946 278 c-8 -13 -18 -49 -22 -81 -6 -52 -5 -57 12 -57 11 0 27 12
36 27 l17 28 10 -28 c12 -32 26 -35 41 -8 13 25 13 32 -1 29 -6 -2 -18 22 -28
52 -19 61 -41 74 -65 38z m34 -27 c0 -29 -18 -71 -30 -71 -13 0 -13 31 0 64
11 31 30 34 30 7z"/>
<path d="M1164 289 c-3 -6 -1 -16 5 -22 6 -6 11 -37 11 -69 0 -32 4 -58 8 -58
10 0 42 33 42 43 0 15 -29 6 -34 -10 -3 -10 -3 15 0 55 4 60 3 72 -10 72 -8 0
-18 -5 -22 -11z"/>
<path d="M1304 290 c-51 -20 -73 -110 -36 -143 25 -23 68 -21 92 3 30 30 25
43 -10 25 -16 -8 -39 -15 -50 -15 -17 0 -21 5 -18 26 2 22 13 30 56 46 28 11
52 23 52 27 0 24 -55 43 -86 31z m26 -35 c-35 -20 -57 -20 -40 0 7 8 24 15 39
15 l26 -1 -25 -14z"/>
<path d="M470 258 c-11 -18 -26 -50 -32 -71 -10 -33 -9 -40 6 -55 16 -16 18
-16 36 6 10 12 21 28 24 35 5 9 7 9 12 0 3 -7 14 -23 24 -35 l19 -23 22 21
c12 12 18 27 14 34 -5 8 -11 6 -20 -7 -13 -17 -14 -16 -25 12 -6 17 -15 48
-19 70 -9 52 -34 58 -61 13z m26 -52 c-15 -37 -36 -49 -36 -21 0 9 7 30 16 47
23 44 40 22 20 -26z"/>
<path d="M843 268 c-24 -26 -43 -69 -43 -99 0 -30 30 -36 51 -10 l18 22 6 -23
c4 -14 5 -47 3 -74 -3 -47 -4 -49 -35 -52 -22 -2 -38 3 -52 17 -25 25 -44 27
-39 4 2 -10 26 -24 62 -36 57 -19 60 -19 73 -1 22 30 12 263 -13 271 -5 2 -20
-7 -31 -19z m22 -45 c-7 -32 -31 -60 -42 -50 -3 4 1 23 10 42 20 42 42 47 32
8z"/>
<path d="M321 254 c-23 -30 -28 -93 -9 -112 34 -34 108 7 108 60 0 32 -35 78
-60 78 -10 0 -28 -12 -39 -26z m59 -29 c10 -12 10 -21 1 -41 -14 -31 -45 -29
-49 4 -7 48 21 69 48 37z"/>
</g>
</svg>
